<svg width="307" height="414" viewBox="0 0 307 414" fill="none" xmlns="http://www.w3.org/2000/svg">
<g opacity="0.2">
<path d="M207 414C321.323 414 414 321.323 414 207C414 92.677 321.323 0 207 0C92.677 0 0 92.677 0 207C0 321.323 92.677 414 207 414Z" fill="#F59393"/>
<path d="M323.454 35.8506C346.074 69.0296 359.305 109.12 359.305 152.305C359.305 266.628 266.628 359.305 152.305 359.305C109.121 359.305 69.0297 346.074 35.8506 323.454C73.1115 378.11 135.862 414 207 414C321.323 414 414 321.323 414 207C414 135.862 378.11 73.1114 323.454 35.8506Z" fill="#EC6161"/>
<path d="M207 383.708C304.593 383.708 383.708 304.593 383.708 207C383.708 109.407 304.593 30.2924 207 30.2924C109.407 30.2924 30.2924 109.407 30.2924 207C30.2924 304.593 109.407 383.708 207 383.708Z" fill="#DAEAEF"/>
<path d="M322.579 73.3297C349.393 104.314 365.616 144.716 365.616 188.909C365.616 286.501 286.502 365.616 188.909 365.616C144.716 365.616 104.314 349.393 73.3297 322.579C105.732 360.019 153.599 383.708 207 383.708C304.592 383.708 383.708 304.593 383.708 207C383.708 153.6 360.019 105.732 322.579 73.3297Z" fill="#A8D0D5"/>
<path d="M219.622 207H194.378V94.5925C194.378 87.8941 199.808 82.4636 206.507 82.4636H207.493C214.192 82.4636 219.622 87.8941 219.622 94.5925V207Z" fill="#786E79"/>
<path d="M198.075 215.925L215.925 198.075L279.384 261.533C284.121 266.27 284.121 273.949 279.384 278.686L278.687 279.383C273.95 284.12 266.271 284.12 261.534 279.383L198.075 215.925Z" fill="#786E79"/>
<path d="M207 232.244C220.942 232.244 232.244 220.942 232.244 207C232.244 193.058 220.942 181.756 207 181.756C193.058 181.756 181.756 193.058 181.756 207C181.756 220.942 193.058 232.244 207 232.244Z" fill="#97E4F9"/>
<path d="M217.386 183.992C218.818 187.161 219.622 190.675 219.622 194.378C219.622 208.32 208.32 219.621 194.379 219.621C190.675 219.621 187.162 218.818 183.993 217.385C187.954 226.144 196.762 232.244 207.001 232.244C220.943 232.244 232.245 220.942 232.245 206.999C232.244 196.762 226.145 187.954 217.386 183.992Z" fill="#0ACEFA"/>
<path d="M207 66.8326C210.451 66.8326 213.247 64.0357 213.247 60.5854V30.4143C211.172 30.3424 209.092 30.2922 207 30.2922C204.908 30.2922 202.828 30.3416 200.753 30.4143V60.5854C200.753 64.0357 203.549 66.8326 207 66.8326Z" fill="#786E79"/>
<path d="M30.4143 213.247H60.5854C64.0365 213.247 66.8326 210.45 66.8326 207C66.8326 203.55 64.0357 200.753 60.5854 200.753H30.4143C30.3424 202.828 30.2922 204.908 30.2922 207C30.2922 209.092 30.3424 211.172 30.4143 213.247Z" fill="#786E79"/>
<path d="M128.383 83.3247C129.541 85.3292 131.64 86.4499 133.799 86.4499C134.859 86.4499 135.934 86.179 136.917 85.6114C139.905 83.8859 140.929 80.0653 139.203 77.0775L124.101 50.9187C120.416 52.8795 116.809 54.9681 113.286 57.1764L128.383 83.3247Z" fill="#786E79"/>
<path d="M277.083 85.6114C278.066 86.1799 279.141 86.4499 280.201 86.4499C282.36 86.4499 284.461 85.3292 285.617 83.3247L300.714 57.1764C297.191 54.9673 293.584 52.8795 289.899 50.9187L274.796 77.0775C273.071 80.0653 274.095 83.8859 277.083 85.6114Z" fill="#786E79"/>
<path d="M50.9187 124.101L77.0775 139.203C78.0616 139.771 79.1354 140.041 80.1955 140.041C82.3544 140.041 84.4551 138.92 85.6114 136.916C87.337 133.927 86.3125 130.107 83.3247 128.382L57.1764 113.286C54.9681 116.809 52.8795 120.416 50.9187 124.101Z" fill="#786E79"/>
<path d="M83.3247 285.618C86.3125 283.893 87.337 280.072 85.6114 277.084C83.8867 274.096 80.0637 273.072 77.0775 274.797L50.9187 289.9C52.8803 293.584 54.9681 297.191 57.1764 300.714L83.3247 285.618Z" fill="#786E79"/>
<path d="M285.617 330.675C283.892 327.687 280.07 326.665 277.083 328.389C274.095 330.114 273.071 333.935 274.797 336.923L289.9 363.081C293.585 361.121 297.191 359.032 300.715 356.824L285.617 330.675Z" fill="#786E79"/>
<path d="M139.203 336.922C140.929 333.935 139.905 330.113 136.917 328.388C133.929 326.662 130.106 327.687 128.383 330.675L113.286 356.823C116.809 359.033 120.416 361.12 124.101 363.081L139.203 336.922Z" fill="#786E79"/>
<path d="M213.247 383.585V353.414C213.247 349.964 210.45 347.167 207 347.167C203.55 347.167 200.753 349.964 200.753 353.414V383.585C202.828 383.657 204.908 383.708 207 383.708C209.092 383.708 211.172 383.657 213.247 383.585Z" fill="#786E79"/>
</g>
</svg>
