<svg width="160" height="1064" viewBox="0 0 160 1064" fill="none" xmlns="http://www.w3.org/2000/svg">
<g opacity="0.2">
<path d="M91 182C141.258 182 182 141.258 182 91C182 40.7421 141.258 0 91 0C40.7421 0 0 40.7421 0 91C0 141.258 40.7421 182 91 182Z" fill="#F59393"/>
<path d="M142.195 15.7604C152.139 30.3463 157.955 47.9708 157.955 66.9553C157.955 117.213 117.213 157.955 66.9555 157.955C47.9709 157.955 30.3464 152.139 15.7605 142.195C32.1409 166.222 59.7267 182 91.0001 182C141.258 182 182 141.258 182 91C182 59.7265 166.222 32.1407 142.195 15.7604Z" fill="#EC6161"/>
<path d="M91.0001 168.683C133.903 168.683 168.683 133.903 168.683 91C168.683 48.0969 133.903 13.317 91.0001 13.317C48.0969 13.317 13.317 48.0969 13.317 91C13.317 133.903 48.0969 168.683 91.0001 168.683Z" fill="#DAEAEF"/>
<path d="M141.81 32.2368C153.598 45.858 160.73 63.6193 160.73 83.0468C160.73 125.95 125.95 160.73 83.0468 160.73C63.6194 160.73 45.858 153.598 32.2368 141.81C46.4812 158.269 67.5242 168.683 91.0001 168.683C133.903 168.683 168.683 133.903 168.683 91C168.683 67.5245 158.269 46.4811 141.81 32.2368Z" fill="#A8D0D5"/>
<path d="M96.5489 91H85.4512V41.5842C85.4512 38.6395 87.8385 36.2521 90.7832 36.2521H91.2169C94.1616 36.2521 96.5489 38.6395 96.5489 41.5842V91Z" fill="#786E79"/>
<path d="M87.0764 94.9237L94.9237 87.0764L122.821 114.974C124.903 117.056 124.903 120.432 122.821 122.514L122.515 122.821C120.432 124.903 117.056 124.903 114.974 122.821L87.0764 94.9237Z" fill="#786E79"/>
<path d="M91.0001 102.098C97.1292 102.098 102.098 97.1291 102.098 91C102.098 84.8709 97.1292 79.9023 91.0001 79.9023C84.871 79.9023 79.9023 84.8709 79.9023 91C79.9023 97.1291 84.871 102.098 91.0001 102.098Z" fill="#97E4F9"/>
<path d="M95.5657 80.8855C96.1955 82.2786 96.5489 83.8231 96.5489 85.4511C96.5489 91.5801 91.5805 96.5485 85.4515 96.5485C83.8235 96.5485 82.2789 96.1952 80.8859 95.5653C82.627 99.4161 86.4991 102.097 91.0004 102.097C97.1294 102.097 102.098 97.129 102.098 90.9996C102.098 86.4991 99.4165 82.6269 95.5657 80.8855Z" fill="#0ACEFA"/>
<path d="M91 29.3805C92.5172 29.3805 93.7464 28.151 93.7464 26.6342V13.3706C92.8342 13.3389 91.9196 13.3169 91 13.3169C90.0804 13.3169 89.1658 13.3386 88.2537 13.3706V26.6342C88.2537 28.151 89.4829 29.3805 91 29.3805Z" fill="#786E79"/>
<path d="M13.3706 93.7464H26.6342C28.1513 93.7464 29.3805 92.5168 29.3805 91C29.3805 89.4832 28.151 88.2537 26.6342 88.2537H13.3706C13.3389 89.1658 13.3169 90.0804 13.3169 91C13.3169 91.9196 13.3389 92.8342 13.3706 93.7464Z" fill="#786E79"/>
<path d="M168.629 1019.25H155.366C153.849 1019.25 152.619 1020.48 152.619 1022C152.619 1023.52 153.849 1024.75 155.366 1024.75H168.629C168.661 1023.83 168.683 1022.92 168.683 1022C168.683 1021.08 168.661 1020.17 168.629 1019.25Z" fill="#786E79"/>
<path d="M56.4388 36.6306C56.9479 37.5119 57.8707 38.0045 58.8198 38.0045C59.2858 38.0045 59.7582 37.8854 60.1905 37.6359C61.5039 36.8773 61.9543 35.1977 61.1957 33.8843L54.5563 22.3845C52.9364 23.2465 51.351 24.1647 49.8019 25.1355L56.4388 36.6306Z" fill="#786E79"/>
<path d="M121.809 37.6359C122.242 37.8858 122.714 38.0045 123.18 38.0045C124.129 38.0045 125.053 37.5119 125.561 36.6306L132.198 25.1355C130.649 24.1644 129.064 23.2465 127.444 22.3845L120.804 33.8843C120.046 35.1977 120.496 36.8773 121.809 37.6359Z" fill="#786E79"/>
<path d="M144.364 991.19C144.873 992.071 145.796 992.564 146.745 992.564C147.211 992.564 147.683 992.445 148.116 992.195L159.615 985.556C158.753 983.936 157.835 982.351 156.864 980.802L145.369 987.438C144.056 988.197 143.605 989.877 144.364 991.19Z" fill="#786E79"/>
<path d="M22.3845 54.5563L33.8843 61.1954C34.3169 61.4453 34.789 61.564 35.255 61.564C36.2041 61.564 37.1276 61.0713 37.6359 60.1901C38.3945 58.8763 37.9441 57.1967 36.6306 56.4385L25.1355 49.8019C24.1647 51.351 23.2465 52.9364 22.3845 54.5563Z" fill="#786E79"/>
<path d="M159.615 1058.44L148.116 1051.8C146.801 1051.05 145.122 1051.5 144.364 1052.81C143.605 1054.12 144.056 1055.8 145.369 1056.56L156.864 1063.2C157.835 1061.65 158.753 1060.06 159.615 1058.44Z" fill="#786E79"/>
<path d="M36.6306 125.562C37.9441 124.803 38.3945 123.123 37.6359 121.81C36.8777 120.496 35.197 120.046 33.8843 120.805L22.3845 127.444C23.2469 129.064 24.1647 130.649 25.1355 132.198L36.6306 125.562Z" fill="#786E79"/>
<path d="M125.561 145.369C124.803 144.056 123.123 143.606 121.81 144.364C120.496 145.123 120.046 146.802 120.804 148.116L127.444 159.615C129.064 158.753 130.649 157.835 132.198 156.864L125.561 145.369Z" fill="#786E79"/>
<path d="M61.1957 148.116C61.9543 146.802 61.5039 145.122 60.1905 144.364C58.877 143.605 57.1963 144.056 56.4388 145.369L49.8019 156.864C51.351 157.836 52.9364 158.753 54.5563 159.615L61.1957 148.116Z" fill="#786E79"/>
<path d="M93.7464 168.629V155.366C93.7464 153.849 92.5168 152.619 91 152.619C89.4832 152.619 88.2537 153.849 88.2537 155.366V168.629C89.1658 168.661 90.0804 168.683 91 168.683C91.9196 168.683 92.8342 168.661 93.7464 168.629Z" fill="#786E79"/>
</g>
</svg>
