<svg width="36" height="36" viewBox="0 0 36 36" fill="none" xmlns="http://www.w3.org/2000/svg">
<path d="M18 35.0734C27.4293 35.0734 35.0734 27.4294 35.0734 18C35.0734 8.57061 27.4293 0.926575 18 0.926575C8.57055 0.926575 0.926514 8.57061 0.926514 18C0.926514 27.4294 8.57055 35.0734 18 35.0734Z" fill="#97E4F9"/>
<path d="M25.0239 2.43933C25.9929 4.58253 26.5365 6.9587 26.5365 9.46339C26.5365 18.8926 18.8929 26.5363 9.46364 26.5363C6.95896 26.5363 4.58278 25.9927 2.43958 25.0236C5.11817 30.9479 11.0753 35.073 18.0004 35.073C27.4296 35.073 35.0738 27.4293 35.0738 17.9996C35.0733 11.0756 30.9482 5.11847 25.0239 2.43933Z" fill="#0ACEFA"/>
</svg>
