<svg width="280" height="280" viewBox="0 0 280 280" fill="none" xmlns="http://www.w3.org/2000/svg">
<path d="M140 280C217.32 280 280 217.32 280 140C280 62.6801 217.32 0 140 0C62.6801 0 0 62.6801 0 140C0 217.32 62.6801 280 140 280Z" fill="#F59393"/>
<path d="M218.761 24.2468C234.06 46.6867 243.008 73.8014 243.008 103.008C243.008 180.328 180.328 243.008 103.008 243.008C73.8012 243.008 46.6866 234.06 24.2467 218.762C49.4473 255.726 91.8869 280 140 280C217.32 280 280 217.32 280 140C280 91.8871 255.726 49.4474 218.761 24.2468Z" fill="#EC6161"/>
<path d="M140 259.512C206.005 259.512 259.512 206.005 259.512 140C259.512 73.9952 206.005 20.4877 140 20.4877C73.9951 20.4877 20.4875 73.9952 20.4875 140C20.4875 206.005 73.9951 259.512 140 259.512Z" fill="#DAEAEF"/>
<path d="M218.169 49.595C236.305 70.5507 247.277 97.8758 247.277 127.764C247.277 193.769 193.769 247.277 127.764 247.277C97.8757 247.277 70.5506 236.305 49.5948 218.169C71.5092 243.491 103.883 259.512 140 259.512C206.004 259.512 259.512 206.005 259.512 140C259.512 103.884 243.491 71.5093 218.169 49.595Z" fill="#A8D0D5"/>
<path d="M140 45.2008C142.334 45.2008 144.225 43.3092 144.225 40.9757V20.5701C142.822 20.5215 141.415 20.4875 140 20.4875C138.585 20.4875 137.178 20.5209 135.775 20.5701V40.9757C135.775 43.3092 137.666 45.2008 140 45.2008Z" fill="#786E79"/>
<path d="M20.57 144.225H40.9756C43.3096 144.225 45.2007 142.334 45.2007 140C45.2007 137.667 43.3091 135.775 40.9756 135.775H20.57C20.5213 137.178 20.4874 138.585 20.4874 140C20.4874 141.415 20.5213 142.822 20.57 144.225Z" fill="#786E79"/>
<path d="M259.43 135.775H239.024C236.69 135.775 234.799 137.667 234.799 140C234.799 142.334 236.691 144.225 239.024 144.225H259.43C259.478 142.822 259.512 141.415 259.512 140C259.512 138.585 259.478 137.178 259.43 135.775Z" fill="#786E79"/>
<path d="M86.8289 56.355C87.612 57.7107 89.0317 58.4686 90.4918 58.4686C91.2088 58.4686 91.9356 58.2854 92.6006 57.9015C94.6213 56.7345 95.3142 54.1505 94.1471 52.1298L83.9326 34.4379C81.4405 35.764 79.0014 37.1766 76.6182 38.6701L86.8289 56.355Z" fill="#786E79"/>
<path d="M187.399 57.9015C188.064 58.286 188.791 58.4686 189.508 58.4686C190.968 58.4686 192.389 57.7107 193.171 56.355L203.382 38.6701C200.998 37.1761 198.559 35.764 196.067 34.4379L185.852 52.1298C184.686 54.1505 185.379 56.7345 187.399 57.9015Z" fill="#786E79"/>
<path d="M222.098 92.6002C222.881 93.9559 224.301 94.7138 225.761 94.7138C226.478 94.7138 227.205 94.5312 227.87 94.1467L245.562 83.9327C244.235 81.4406 242.823 79.0016 241.33 76.6183L223.645 86.8284C221.624 87.9949 220.931 90.5795 222.098 92.6002Z" fill="#786E79"/>
<path d="M34.4377 83.9327L52.1297 94.1467C52.7952 94.5312 53.5215 94.7138 54.2384 94.7138C55.6986 94.7138 57.1194 93.9559 57.9014 92.6002C59.0684 90.5789 58.3756 87.9949 56.3549 86.8284L38.67 76.6183C37.1765 79.0016 35.7639 81.4406 34.4377 83.9327Z" fill="#786E79"/>
<path d="M245.562 196.067L227.87 185.853C225.848 184.686 223.264 185.379 222.098 187.4C220.931 189.421 221.624 192.005 223.645 193.172L241.33 203.382C242.823 200.998 244.236 198.559 245.562 196.067Z" fill="#786E79"/>
<path d="M56.3549 193.172C58.3756 192.005 59.0684 189.421 57.9014 187.4C56.7349 185.379 54.1493 184.686 52.1297 185.853L34.4377 196.067C35.7645 198.559 37.1765 200.999 38.67 203.382L56.3549 193.172Z" fill="#786E79"/>
<path d="M193.171 223.645C192.004 221.624 189.419 220.933 187.399 222.099C185.378 223.266 184.686 225.85 185.853 227.87L196.068 245.562C198.56 244.236 200.999 242.824 203.382 241.33L193.171 223.645Z" fill="#786E79"/>
<path d="M94.1471 227.87C95.3142 225.849 94.6213 223.265 92.6006 222.098C90.5799 220.931 87.9943 221.624 86.8289 223.645L76.6182 241.33C79.0014 242.824 81.4405 244.236 83.9326 245.562L94.1471 227.87Z" fill="#786E79"/>
<path d="M144.225 259.43V239.024C144.225 236.691 142.333 234.799 140 234.799C137.666 234.799 135.775 236.691 135.775 239.024V259.43C137.178 259.479 138.585 259.512 140 259.512C141.415 259.512 142.822 259.479 144.225 259.43Z" fill="#786E79"/>
</svg>
