<svg width="122" height="257" viewBox="0 0 122 257" fill="none" xmlns="http://www.w3.org/2000/svg">
<path d="M104.899 63.3505C105.451 67.2847 103.609 71.8401 103.609 71.8401C102.504 74.946 100.294 75.3601 96.2419 74.5319L68.43 68.1129C68.0617 68.1129 67.6933 67.9059 67.5091 67.6988C67.5091 67.6988 67.5091 67.6988 67.3249 67.6988C64.0096 66.2494 61.9836 62.3151 62.7203 58.1739C63.0887 56.5174 63.8254 55.0679 64.7464 53.8256C64.9305 53.6185 65.1148 53.4115 65.2989 53.2044C66.9566 51.755 69.1668 51.1338 71.377 51.5479L72.4821 51.7549L99.1889 57.9668C102.873 58.3809 104.53 60.6586 104.899 63.3505Z" fill="#D9A36E"/>
<path d="M12.0695 241.424C9.67514 242.874 9.67514 245.359 12.0695 247.015L25.515 255.712C27.9094 257.161 31.7773 257.161 33.9875 255.712C36.3819 254.262 36.3819 251.778 33.9875 250.121L20.542 241.424C18.1476 239.975 14.2798 239.975 12.0695 241.424Z" fill="#432918"/>
<path d="M24.5941 232.728L14.6482 231.692C12.6222 234.798 10.5961 238.525 10.0436 244.116L35.461 253.434C36.0136 249.5 32.1457 243.909 27.1727 239.975C25.5151 238.318 26.436 234.798 24.5941 232.728Z" fill="#432918"/>
<path d="M40.8026 222.789C38.4082 224.238 38.4082 226.723 40.8026 228.379L54.2481 237.076C56.6425 238.526 60.5103 238.526 62.7205 237.076C65.1149 235.627 65.1149 233.142 62.7205 231.485L49.2751 222.789C47.0649 221.132 43.197 221.132 40.8026 222.789Z" fill="#432918"/>
<path d="M53.5113 213.885L43.5653 212.85C41.5393 215.956 39.5132 219.683 38.9607 225.273L64.3782 234.591C64.9307 230.657 61.0629 225.066 56.0899 221.132C54.248 219.683 55.1689 216.163 53.5113 213.885Z" fill="#432918"/>
<path d="M59.4049 162.741L38.5921 165.846L38.0395 160.877L34.54 132.095L31.2247 104.349L51.8534 101.243L59.4049 162.741Z" fill="#413D5B"/>
<path d="M54.9845 210.779C59.0366 213.471 59.0366 217.612 54.9845 220.304C50.9325 222.996 44.486 222.996 40.4339 220.304C36.3819 217.612 36.3819 213.471 40.4339 210.779C44.3018 208.087 50.9325 208.087 54.9845 210.779Z" fill="#413D5B"/>
<path d="M37.303 215.542C36.3821 198.355 37.6714 167.917 38.5923 165.847C39.5133 163.569 40.9867 156.115 42.6444 154.665C45.2229 152.595 48.1699 150.524 51.3011 151.145C54.9848 151.766 58.4842 158.599 59.4052 162.741C60.3261 166.882 58.6684 213.057 58.1159 215.542C57.5633 218.026 54.248 214.713 52.222 215.542H37.303Z" fill="#413D5B"/>
<path d="M35.4611 116.566H14.4641V178.684H35.4611V116.566Z" fill="#413D5B"/>
<path d="M73.0347 52.5832L62.5362 41.4017L52.9586 32.291C49.6432 29.185 44.8544 29.3921 41.9075 33.1192C38.9605 36.6393 39.3289 42.23 42.6442 45.336L63.0887 65.214C69.1668 70.1835 72.8505 67.4917 74.8765 65.0069C77.8235 61.4869 76.35 55.8962 73.0347 52.5832Z" fill="#D9A36E"/>
<path d="M54.4321 50.7198L52.9586 110.768C52.7744 120.086 22.5681 128.161 14.8324 117.187C14.6482 116.98 14.4641 116.566 14.2799 116.359C13.9115 106.213 13.5431 98.9654 12.438 82.4004C12.2538 80.3298 12.2538 78.2591 12.0696 76.1885C11.1487 61.0729 10.2278 47.6138 10.2278 47.6138C12.0696 44.5079 14.8324 42.2302 18.3319 40.1596C20.1738 39.1243 22.0156 38.0889 24.0416 37.0536C26.2518 36.0183 28.2779 34.983 30.4881 33.7406C34.5401 31.4629 37.8555 30.0135 40.6182 29.1852C51.6693 25.8722 52.7745 33.5335 54.2479 44.5079C54.6163 46.7856 54.6163 48.8562 54.4321 50.7198Z" fill="#413D5B"/>
<path d="M26.8045 229.001C30.8565 231.693 30.8565 235.834 26.8045 238.526C22.7524 241.218 16.3059 241.218 12.2539 238.526C8.20183 235.834 8.20183 231.693 12.2539 229.001C16.1218 226.309 22.7524 226.309 26.8045 229.001Z" fill="#413D5B"/>
<path d="M9.12268 233.763C9.67523 216.577 13.5431 180.548 14.464 178.684C15.5691 176.614 17.5951 173.922 19.437 172.679C22.1997 170.816 25.3309 169.159 28.2779 169.988C31.9616 171.023 34.9085 174.336 35.4611 178.684C36.0136 182.826 30.6722 231.485 29.7513 233.763C29.0146 236.041 29.0146 236.041 26.8044 236.662L9.12268 233.763Z" fill="#413D5B"/>
<path d="M48.9065 57.9668C48.9065 57.9668 38.408 64.7999 34.1718 67.0776C33.435 62.1081 33.4351 49.2702 31.2249 44.7148C29.7514 41.4018 27.1728 38.5029 24.0416 37.2605C26.2518 36.2252 28.2779 35.1899 30.4881 33.9475C34.5401 31.6698 37.8555 30.2204 40.6182 29.3922C40.8024 29.5992 40.9867 29.8063 41.355 29.8063C51.8535 36.2252 48.9065 57.9668 48.9065 57.9668Z" fill="#D9A36E"/>
<path d="M26.4362 78.4664C25.3311 80.537 23.3051 81.7794 21.0948 82.4005C19.0688 83.0217 16.8586 83.0217 14.6484 82.8147C13.9116 82.8147 13.1749 82.6076 12.6223 82.6076C11.5172 65.2143 10.4121 47.821 10.4121 47.821C12.254 44.7151 15.0168 42.4374 18.3321 40.3668C21.279 40.9879 23.8576 42.6445 25.5153 45.3363C27.5413 48.8564 27.7254 53.4117 27.7254 57.7601C27.7254 61.9013 27.7254 66.0426 27.7254 69.9768C27.9096 73.0827 27.7255 75.9816 26.4362 78.4664Z" fill="#D9A36E"/>
<path opacity="0.1" d="M14.4641 116.566C14.0958 106.42 13.7274 99.1726 12.6223 82.6075C12.4381 80.5369 12.4381 78.4663 12.2539 76.3957L18.7004 54.2399L24.0417 54.654C20.7264 77.2239 14.6483 116.773 14.4641 116.566Z" fill="#1D1D1B"/>
<path d="M18.7003 44.7151C14.6482 43.2657 10.2278 45.9575 8.93852 50.5129L5.07063 64.5932L0.281819 83.4359C-1.00747 87.9913 2.30784 92.3396 6.54408 93.789C10.5961 95.2385 12.6222 90.8902 14.2799 86.7489L24.0416 55.6895C25.3309 50.927 22.9365 45.9575 18.7003 44.7151Z" fill="#D9A36E"/>
<path d="M43.197 38.7098C43.197 39.1239 43.0128 39.3309 42.8286 39.7451C42.4603 40.5733 41.7235 41.1945 40.8026 41.8157C40.6184 41.8157 40.4342 42.0227 40.2501 42.0227C37.1189 43.4722 32.3301 43.0581 29.5673 40.7804C26.6204 38.5027 26.8046 35.1897 29.9357 33.5332C30.3041 33.3261 30.6725 33.1191 31.225 32.912C31.5934 32.7049 31.9617 32.7049 32.3301 32.7049C32.6985 32.7049 33.251 32.4979 33.8036 32.4979C36.3822 32.2908 39.145 32.912 41.171 34.3614C42.0919 35.1897 42.8286 36.0179 43.0128 36.8462C43.197 37.4674 43.197 38.0886 43.197 38.7098Z" fill="#FFCEA1"/>
<path d="M44.6079 15.3357L28.8076 14.0847L27.3713 37.0112L43.1716 38.2622L44.6079 15.3357Z" fill="#FFCEA1"/>
<path opacity="0.1" d="M41.5393 39.3308C41.5393 39.3308 42.4603 38.9167 43.0128 38.7096C43.0128 39.1237 42.8286 39.3308 42.6445 39.7449C42.2761 40.5732 41.5393 41.1944 40.6184 41.8156C40.4342 41.8156 40.2501 42.0226 40.0659 42.0226C37.1189 41.8155 34.172 39.952 32.6985 37.0531C32.1459 36.0178 31.7776 34.9825 31.4092 33.9472C31.4092 33.7401 31.225 33.326 31.225 33.1189C31.0409 32.0836 30.8567 30.8412 30.8567 29.8059C30.6725 27.3212 31.0409 24.6293 31.225 22.1446C31.4092 20.9022 31.5934 19.2457 31.7776 17.5892C31.7776 18.2104 31.5934 18.8316 31.5934 19.4528C31.4092 21.9375 31.0409 24.6293 31.225 27.1141C31.4092 28.9776 31.5934 31.0483 32.3301 32.7048C32.5143 33.1189 32.6985 33.533 32.8827 33.7401C32.8827 33.9472 33.0669 34.1542 33.0669 34.1542C34.9087 37.4672 38.224 39.3308 41.5393 39.3308Z" fill="#1D1D1B"/>
<path d="M31.7774 18.8318C31.4091 21.3166 31.0407 23.8013 31.0407 26.4931C31.0407 28.9779 31.4091 31.6697 32.5142 33.9474C34.1718 37.2604 37.4871 39.331 40.8025 39.5381C41.5392 39.5381 42.4602 39.5381 43.1969 39.124C44.6704 38.5028 46.328 37.6745 47.0647 36.018C50.1959 29.8062 51.4852 20.9025 51.1168 11.7917C50.9326 7.02924 49.8275 8.06455 47.2489 7.02923C44.6703 5.99392 41.7234 6.20097 38.9606 6.82216C38.2239 7.02922 37.4872 7.2363 36.7504 7.65043C36.1979 8.06455 35.6453 8.68573 35.0927 9.09986C33.9876 9.72105 32.33 15.1047 31.7774 18.8318Z" fill="#FFCEA1"/>
<path d="M27.1728 27.5284C27.7253 29.1849 29.1988 30.8414 29.5672 30.6343C29.9355 30.4273 30.1198 29.8061 30.3039 29.1849C31.409 25.0436 31.7774 20.9024 31.5932 16.5541C32.1458 16.9682 34.356 19.66 34.5402 19.453C35.0927 18.8318 34.9085 15.9329 35.0927 11.7916C35.0927 11.7916 35.4611 14.4834 41.1708 9.09981C46.6964 3.71617 31.5932 -3.73811 27.5412 5.78679C26.0677 8.89273 24.9626 20.4883 27.1728 27.5284Z" fill="#432918"/>
<path d="M31.4092 14.6905C32.3301 14.8976 32.8827 15.7258 33.0669 16.5541C33.2511 17.5894 33.2511 18.8318 33.0669 19.8671C32.8827 21.3165 32.6985 22.766 32.146 24.0084C31.9618 24.4225 31.7776 24.6295 31.4092 24.8366C30.8566 25.0437 30.3041 24.6296 29.9357 24.2154C29.5674 23.8013 29.5673 23.1801 29.5673 22.5589C29.3832 20.9024 29.3832 19.2459 29.5673 17.5894C29.5673 16.9682 29.7516 16.347 30.1199 15.7258C30.3041 14.8976 30.8566 14.4835 31.4092 14.6905Z" fill="#FFCEA1"/>
<path d="M35.0927 11.7917C35.0927 10.3423 34.3559 9.51404 33.2508 8.68579C32.5141 8.0646 31.2248 7.65046 31.0406 6.40808C30.8565 5.57983 31.0406 4.33747 31.409 3.50921C33.435 -0.632044 49.8274 -2.28856 50.7484 11.5847C50.9325 13.6553 34.9085 16.5542 35.0927 11.7917Z" fill="#FFCEA1"/>
<path d="M106.004 62.1083C103.425 62.1083 101.767 60.8659 99.9256 63.1436C98.268 65.2142 97.7154 67.0778 99.5572 68.9414C100.662 69.9767 104.899 76.1886 106.372 76.3956C107.293 76.6027 107.846 76.3956 108.582 76.6027C109.319 76.8097 110.056 77.2239 110.424 77.8451C110.977 78.4663 111.713 78.8804 112.266 78.2592C112.45 78.0521 113.003 76.3956 110.24 73.9109C109.687 73.2897 115.029 76.6027 119.265 80.3298C120.002 80.951 121.844 80.5369 121.107 78.2592C119.818 76.1886 117.976 74.7391 116.134 73.2897C116.686 72.2544 117.607 69.9767 117.607 68.7343C117.423 67.2849 113.924 62.7295 112.819 62.1083C111.713 61.9012 107.109 62.1083 106.004 62.1083Z" fill="#FFCEA1"/>
<path d="M42.276 114.288C43.197 114.909 43.9337 115.53 45.0388 115.737C45.7755 115.945 46.5122 115.945 47.249 115.737C49.0908 115.53 50.9327 115.53 52.7745 115.323C53.3271 115.323 53.8796 115.323 54.4322 115.116C55.7215 114.909 56.8266 114.081 57.7475 113.046C57.9317 112.632 58.3 112.424 58.1159 111.803C58.1159 111.596 57.9317 111.389 57.9317 111.182C57.3792 110.354 56.274 110.354 55.3531 110.147C53.6954 109.733 52.0378 108.697 50.5643 107.662C49.0909 106.627 47.8015 105.177 46.3281 104.142C47.4332 104.97 48.5383 105.798 49.6434 106.213C50.9327 106.42 52.4062 106.213 53.1429 104.97C53.1429 104.763 53.3271 104.763 53.3271 104.556C53.3271 104.349 53.3271 104.349 53.3271 104.142C52.9587 103.314 52.4061 102.9 51.6694 102.692C51.1168 102.485 50.5643 102.485 50.0118 102.485C49.275 102.278 48.7225 101.864 48.1699 101.45C45.7755 99.7936 42.8286 98.9654 40.0658 99.5866C39.5132 99.7936 38.9607 99.7936 38.5923 100.001C37.4872 100.622 36.5663 101.864 35.8296 103.107C35.6454 103.314 35.4612 103.728 35.4612 103.935C35.4612 104.142 35.4612 104.349 35.4612 104.763C35.6454 106.834 36.7505 108.697 37.8556 110.354C39.1449 111.803 40.6184 113.046 42.276 114.288Z" fill="#FFCEA1"/>
<path d="M83.7176 103.935L64.7466 116.359C64.3782 116.566 63.6415 116.566 63.2731 116.359L36.198 98.7584C35.277 98.1372 35.277 96.4807 36.198 95.8595L55.169 83.4358C55.5374 83.2287 56.2741 83.2287 56.6425 83.4358L83.7176 101.036C84.6385 101.657 84.6385 103.107 83.7176 103.935Z" fill="#878787"/>
<path d="M80.0337 100.829L62.5362 112.218L38.5922 96.8949L56.2738 85.2994L80.0337 100.829Z" fill="#EDEDED"/>
<path d="M53.143 104.349C52.7747 103.521 52.2221 103.107 51.4854 102.9C50.9328 102.693 50.3802 102.693 49.8277 102.693C49.0909 102.486 48.5384 102.072 47.9858 101.657C45.5914 100.001 42.6445 99.1726 39.8817 99.7938C39.3292 100.001 38.7766 100.001 38.4083 100.208C37.3032 100.829 36.3822 102.072 35.6455 103.314C35.4613 103.521 35.2771 103.935 35.2771 104.142C35.2771 104.349 35.2771 104.556 35.2771 104.97C35.4613 107.041 36.5664 108.905 37.6715 110.561C38.9608 112.011 40.4343 113.253 42.092 114.495C42.6445 114.909 43.197 115.324 43.7496 115.531L46.3282 107.455C46.3282 107.455 47.0649 106.006 47.6175 105.799C48.17 106.213 48.9068 106.42 49.4593 106.627C53.8798 107.455 53.143 104.556 53.143 104.349Z" fill="#FFCEA1"/>
<path d="M40.2499 100.208C39.8815 104.142 36.7504 107.869 36.7504 107.869C34.9086 110.354 32.5141 110.147 29.0146 108.076L3.96553 92.9604C3.59716 92.7533 3.41298 92.5462 3.04461 92.3392C0.0976538 89.8544 -0.82328 85.5061 1.01857 81.7789C1.7553 80.3295 2.86043 79.0871 4.14973 78.2589C4.33391 78.0518 4.70227 78.0518 4.88645 77.8448C6.91248 77.0165 9.12273 77.0165 10.9646 78.2589L11.8855 78.8801L36.0136 93.3745C39.6973 95.031 40.6183 97.7228 40.2499 100.208Z" fill="#D9A36E"/>
<path d="M78.0077 105.177L68.2459 111.389C67.5091 111.803 67.6933 112.632 68.6142 112.839L70.0877 113.253C70.8244 113.46 71.5612 113.253 72.1137 113.046L73.4031 112.217L76.1658 112.424L79.4811 110.354L79.1128 108.697L80.402 107.869C80.9546 107.455 81.1388 107.041 80.7704 106.627L80.0337 105.591C79.8495 104.763 78.5602 104.556 78.0077 105.177Z" fill="#DADADA"/>
<path d="M78.3759 107.869C78.5601 107.869 78.5601 108.076 78.3759 108.076L72.8503 111.596C72.6662 111.596 72.482 111.596 72.482 111.596C72.2978 111.596 72.2978 111.389 72.482 111.389L78.0075 107.869C78.0075 107.869 78.1917 107.869 78.3759 107.869Z" fill="#575756"/>
<path d="M77.455 107.248C77.6392 107.248 77.6392 107.455 77.455 107.455L71.9295 110.975C71.7453 110.975 71.5612 110.975 71.5612 110.975C71.377 110.975 71.377 110.768 71.5612 110.768L77.0867 107.248C77.2709 107.248 77.455 107.248 77.455 107.248Z" fill="#575756"/>
<path d="M76.7183 106.834C76.9025 106.834 76.9025 107.041 76.7183 107.041L71.1928 110.561C71.0086 110.561 70.8244 110.561 70.8244 110.561C70.6402 110.561 70.6402 110.354 70.8244 110.354L76.35 106.834C76.35 106.834 76.5341 106.834 76.7183 106.834Z" fill="#575756"/>
<path d="M69.5351 111.596C69.7193 111.803 69.7193 112.01 69.5351 112.217C69.3509 112.424 68.9825 112.424 68.6142 112.217C68.43 112.01 68.43 111.803 68.6142 111.596C68.9825 111.596 69.3509 111.596 69.5351 111.596Z" fill="#878787"/>
<path d="M79.297 105.384C79.4812 105.591 79.4812 105.798 79.297 106.006C79.1129 106.213 78.7445 106.213 78.3761 106.006C78.1919 105.798 78.1919 105.591 78.3761 105.384C78.7445 105.177 79.1129 105.177 79.297 105.384Z" fill="#878787"/>
</svg>
