<svg width="66" height="256" viewBox="0 0 66 256" fill="none" xmlns="http://www.w3.org/2000/svg">
<path d="M8.91356 150.293C8.61286 152.434 9.61522 154.913 9.61522 154.913C10.2166 156.604 11.4194 156.829 13.6246 156.378L28.76 152.885C28.9605 152.885 29.1609 152.772 29.2612 152.66C29.2612 152.66 29.2612 152.66 29.3614 152.66C31.1656 151.871 32.2682 149.73 31.8673 147.476C31.6668 146.575 31.2659 145.786 30.7647 145.11C30.6644 144.997 30.5642 144.884 30.464 144.772C29.5618 143.983 28.359 143.645 27.1562 143.87L26.5548 143.983L12.0208 147.364C10.0161 147.589 9.11403 148.828 8.91356 150.293Z" fill="#D9A36E"/>
<path d="M59.4317 247.202C60.7347 247.991 60.7347 249.343 59.4317 250.245L52.1145 254.978C50.8115 255.766 48.7065 255.766 47.5037 254.978C46.2007 254.189 46.2007 252.837 47.5037 251.935L54.8209 247.202C56.1239 246.414 58.2288 246.414 59.4317 247.202Z" fill="#432918"/>
<path d="M52.6157 242.47L58.0283 241.906C59.1309 243.596 60.2335 245.625 60.5342 248.667L46.7018 253.738C46.4011 251.597 48.5061 248.555 51.2124 246.414C52.1145 245.512 51.6133 243.596 52.6157 242.47Z" fill="#432918"/>
<path d="M43.7949 237.061C45.098 237.849 45.098 239.202 43.7949 240.103L36.4778 244.836C35.1748 245.625 33.0699 245.625 31.867 244.836C30.564 244.047 30.564 242.695 31.867 241.793L39.1841 237.061C40.387 236.159 42.4919 236.159 43.7949 237.061Z" fill="#432918"/>
<path d="M36.8789 232.215L42.2915 231.652C43.3941 233.342 44.4967 235.37 44.7974 238.413L30.965 243.484C30.6643 241.343 32.7692 238.3 35.4755 236.159C36.4779 235.37 35.9767 233.455 36.8789 232.215Z" fill="#432918"/>
<path d="M33.6715 204.382L44.9979 206.072L45.2987 203.368L47.2031 187.704L49.0073 172.605L37.7811 170.914L33.6715 204.382Z" fill="#413D5B"/>
<path d="M36.077 230.525C33.8719 231.99 33.8719 234.244 36.077 235.708C38.2822 237.173 41.7904 237.173 43.9955 235.708C46.2007 234.244 46.2007 231.99 43.9955 230.525C41.8906 229.06 38.2822 229.06 36.077 230.525Z" fill="#413D5B"/>
<path d="M45.6994 233.117C46.2006 223.764 45.4989 207.199 44.9978 206.072C44.4966 204.833 43.6947 200.776 42.7926 199.987C41.3893 198.861 39.7856 197.734 38.0816 198.072C36.0769 198.41 34.1725 202.128 33.6713 204.382C33.1701 206.636 34.0722 231.765 34.3729 233.117C34.6736 234.469 36.4778 232.666 37.5804 233.117H45.6994Z" fill="#413D5B"/>
<path d="M46.7018 179.253H58.1285V213.059H46.7018V179.253Z" fill="#413D5B"/>
<path d="M26.2541 144.434L31.9674 138.349L37.1796 133.39C38.9838 131.7 41.5899 131.813 43.1937 133.841C44.7974 135.757 44.597 138.799 42.7927 140.49L31.6667 151.307C28.359 154.012 26.3543 152.547 25.2517 151.195C23.648 149.279 24.4498 146.237 26.2541 144.434Z" fill="#D9A36E"/>
<path d="M36.3777 143.42L37.1796 176.098C37.2798 181.169 53.7183 185.564 57.9281 179.591C58.0283 179.479 58.1286 179.253 58.2288 179.141C58.4293 173.619 58.6297 169.675 59.2311 160.66C59.3314 159.533 59.3314 158.407 59.4316 157.28C59.9328 149.054 60.434 141.729 60.434 141.729C59.4316 140.039 57.9281 138.799 56.0236 137.673C55.0213 137.109 54.019 136.546 52.9164 135.982C51.7136 135.419 50.611 134.855 49.4082 134.179C47.203 132.94 45.3988 132.151 43.8953 131.7C37.8812 129.897 37.2798 134.067 36.4779 140.039C36.2774 141.279 36.2775 142.405 36.3777 143.42Z" fill="#413D5B"/>
<path d="M51.4129 240.441C49.2077 241.906 49.2077 244.16 51.4129 245.625C53.618 247.09 57.1262 247.09 59.3314 245.625C61.5365 244.16 61.5365 241.906 59.3314 240.441C57.2264 238.976 53.618 238.976 51.4129 240.441Z" fill="#413D5B"/>
<path d="M61.0354 243.033C60.7347 233.68 58.6298 214.073 58.1286 213.059C57.5272 211.932 56.4246 210.467 55.4223 209.791C53.9188 208.777 52.2148 207.875 50.611 208.326C48.6063 208.889 47.0026 210.692 46.7019 213.059C46.4012 215.312 49.308 241.793 49.8092 243.033C50.2101 244.272 50.2101 244.272 51.4129 244.611L61.0354 243.033Z" fill="#413D5B"/>
<path d="M39.3849 147.363C39.3849 147.363 45.0982 151.082 47.4036 152.322C47.8046 149.617 47.8045 142.631 49.0073 140.152C49.8092 138.349 51.2125 136.771 52.9165 136.095C51.7137 135.532 50.6111 134.968 49.4083 134.292C47.2031 133.053 45.3989 132.264 43.8954 131.813C43.7952 131.926 43.6949 132.038 43.4944 132.038C37.7811 135.532 39.3849 147.363 39.3849 147.363Z" fill="#D9A36E"/>
<path d="M51.6133 158.519C52.2147 159.646 53.3173 160.322 54.5201 160.66C55.6227 160.999 56.8255 160.998 58.0283 160.886C58.4293 160.886 58.8302 160.773 59.1309 160.773C59.7323 151.308 60.3337 141.842 60.3337 141.842C59.3314 140.152 57.8279 138.912 56.0236 137.785C54.4199 138.123 53.0166 139.025 52.1145 140.49C51.0119 142.405 50.9117 144.885 50.9117 147.251C50.9117 149.505 50.9117 151.758 50.9117 153.899C50.8115 155.59 50.9117 157.167 51.6133 158.519Z" fill="#D9A36E"/>
<path opacity="0.1" d="M58.1285 179.253C58.3289 173.732 58.5294 169.788 59.1308 160.773C59.2311 159.646 59.2311 158.519 59.3313 157.392L55.8231 145.335L52.9163 145.561C54.7205 157.843 58.0282 179.366 58.1285 179.253Z" fill="#1D1D1B"/>
<path d="M55.8232 140.152C58.0284 139.363 60.434 140.828 61.1356 143.307L63.2405 150.97L65.8466 161.224C66.5483 163.703 64.7441 166.069 62.4387 166.858C60.2335 167.647 59.1309 165.281 58.2288 163.027L52.9164 146.124C52.2148 143.532 53.5178 140.828 55.8232 140.152Z" fill="#D9A36E"/>
<path d="M42.4918 136.884C42.4918 137.109 42.592 137.222 42.6923 137.447C42.8927 137.898 43.2937 138.236 43.7949 138.574C43.8951 138.574 43.9953 138.687 44.0955 138.687C45.7995 139.475 48.4056 139.25 49.9092 138.011C51.5129 136.771 51.4127 134.968 49.7087 134.067C49.5082 133.954 49.3077 133.841 49.007 133.729C48.8066 133.616 48.6061 133.616 48.4056 133.616C48.2052 133.616 47.9045 133.503 47.6037 133.503C46.2005 133.39 44.697 133.729 43.5944 134.517C43.0932 134.968 42.6923 135.419 42.592 135.87C42.4918 136.208 42.4918 136.546 42.4918 136.884Z" fill="#FFCEA1"/>
<path d="M41.7241 124.163L50.3228 123.483L51.1044 135.959L42.5058 136.64L41.7241 124.163Z" fill="#FFCEA1"/>
<path opacity="0.1" d="M43.394 137.222C43.394 137.222 42.8928 136.996 42.5921 136.884C42.5921 137.109 42.6923 137.222 42.7926 137.447C42.993 137.898 43.394 138.236 43.8951 138.574C43.9954 138.574 44.0956 138.687 44.1958 138.687C45.7996 138.574 47.4033 137.56 48.2052 135.982C48.5059 135.419 48.7064 134.855 48.9069 134.292C48.9069 134.179 49.0071 133.954 49.0071 133.841C49.1073 133.278 49.2075 132.602 49.2075 132.038C49.3078 130.686 49.1073 129.221 49.0071 127.869C48.9068 127.193 48.8066 126.291 48.7064 125.39C48.7064 125.728 48.8066 126.066 48.8066 126.404C48.9068 127.756 49.1073 129.221 49.0071 130.573C48.9068 131.587 48.8066 132.714 48.4057 133.616C48.3054 133.841 48.2052 134.067 48.105 134.179C48.105 134.292 48.0047 134.405 48.0047 134.405C47.0024 136.208 45.1982 137.222 43.394 137.222Z" fill="#1D1D1B"/>
<path d="M48.7064 126.066C48.9068 127.418 49.1073 128.77 49.1073 130.235C49.1073 131.588 48.9068 133.052 48.3054 134.292C47.4033 136.095 45.5991 137.222 43.7949 137.334C43.394 137.334 42.8928 137.334 42.4918 137.109C41.6899 136.771 40.7879 136.32 40.3869 135.419C38.6829 132.038 37.9813 127.193 38.1818 122.235C38.282 119.643 38.8834 120.206 40.2867 119.643C41.69 119.08 43.2937 119.192 44.7972 119.53C45.1982 119.643 45.5991 119.756 46 119.981C46.3007 120.206 46.6015 120.544 46.9022 120.77C47.5036 121.108 48.4057 124.038 48.7064 126.066Z" fill="#FFCEA1"/>
<path d="M51.2123 130.799C50.9116 131.7 50.1097 132.602 49.9093 132.489C49.7088 132.376 49.6085 132.038 49.5083 131.7C48.9069 129.446 48.7064 127.193 48.8067 124.826C48.506 125.052 47.3032 126.517 47.2029 126.404C46.9022 126.066 47.0025 124.488 46.9022 122.235C46.9022 122.235 46.7017 123.7 43.5945 120.77C40.5875 117.84 48.8067 113.783 51.0118 118.967C51.8137 120.657 52.4151 126.967 51.2123 130.799Z" fill="#432918"/>
<path d="M48.9069 123.812C48.4057 123.925 48.105 124.376 48.0047 124.826C47.9045 125.39 47.9045 126.066 48.0047 126.629C48.105 127.418 48.2052 128.207 48.5059 128.883C48.6061 129.108 48.7064 129.221 48.9069 129.334C49.2076 129.447 49.5082 129.221 49.7087 128.996C49.9092 128.77 49.9092 128.432 49.9092 128.094C50.0094 127.193 50.0094 126.291 49.9092 125.39C49.9092 125.052 49.8089 124.714 49.6085 124.376C49.5082 123.925 49.2076 123.7 48.9069 123.812Z" fill="#FFCEA1"/>
<path d="M46.9023 122.235C46.9023 121.446 47.3032 120.995 47.9046 120.544C48.3055 120.206 49.0072 119.981 49.1074 119.305C49.2076 118.854 49.1074 118.178 48.907 117.727C47.8044 115.474 38.8835 114.572 38.3823 122.122C38.2821 123.249 47.0025 124.827 46.9023 122.235Z" fill="#FFCEA1"/>
<path d="M8.3121 149.617C9.71539 149.617 10.6175 148.941 11.6198 150.181C12.5219 151.308 12.8227 152.322 11.8203 153.336C11.2189 153.899 8.9135 157.28 8.11162 157.393C7.61045 157.505 7.30974 157.393 6.9088 157.505C6.50786 157.618 6.10692 157.843 5.90645 158.181C5.60575 158.519 5.20481 158.745 4.90411 158.407C4.80388 158.294 4.50318 157.393 6.0067 156.04C6.3074 155.702 3.40061 157.505 1.09521 159.534C0.694278 159.872 -0.308066 159.646 0.0928717 158.407C0.794512 157.28 1.79687 156.491 2.79921 155.702C2.49851 155.139 1.99732 153.899 1.99732 153.223C2.09755 152.434 4.00201 149.955 4.60342 149.617C5.20483 149.505 7.7107 149.617 8.3121 149.617Z" fill="#FFCEA1"/>
<path d="M42.9932 178.014C42.492 178.352 42.0911 178.69 41.4897 178.803C41.0888 178.915 40.6878 178.915 40.2869 178.803C39.2846 178.69 38.2822 178.69 37.2799 178.577C36.9792 178.577 36.6785 178.577 36.3778 178.464C35.6761 178.352 35.0747 177.901 34.5735 177.338C34.4733 177.112 34.2729 177 34.3731 176.662C34.3731 176.549 34.4733 176.436 34.4733 176.323C34.774 175.873 35.3754 175.873 35.8766 175.76C36.7787 175.535 37.6808 174.971 38.4827 174.408C39.2845 173.844 39.9862 173.056 40.7881 172.492C40.1867 172.943 39.5852 173.394 38.9838 173.619C38.2822 173.732 37.4803 173.619 37.0794 172.943C37.0794 172.83 36.9792 172.83 36.9792 172.718C36.9792 172.605 36.9792 172.605 36.9792 172.492C37.1796 172.041 37.4804 171.816 37.8813 171.703C38.182 171.591 38.4827 171.591 38.7834 171.591C39.1843 171.478 39.485 171.253 39.7857 171.027C41.0888 170.126 42.6925 169.675 44.196 170.013C44.4967 170.126 44.7974 170.126 44.9979 170.238C45.5993 170.577 46.1005 171.253 46.5014 171.929C46.6017 172.041 46.7019 172.267 46.7019 172.38C46.7019 172.492 46.7019 172.605 46.7019 172.83C46.6017 173.957 46.0003 174.971 45.3989 175.873C44.6972 176.662 43.8953 177.338 42.9932 178.014Z" fill="#FFCEA1"/>
<path d="M20.4404 172.38L30.7645 179.141C30.965 179.253 31.3659 179.253 31.5664 179.141L46.3009 169.562C46.8021 169.224 46.8021 168.323 46.3009 167.985L35.9767 161.224C35.7762 161.111 35.3753 161.111 35.1749 161.224L20.4404 170.802C19.9392 171.14 19.9392 171.929 20.4404 172.38Z" fill="#878787"/>
<path d="M22.4451 170.689L31.9673 176.887L44.9978 168.548L35.3753 162.238L22.4451 170.689Z" fill="#EDEDED"/>
<path d="M37.0793 172.605C37.2797 172.154 37.5804 171.929 37.9814 171.816C38.2821 171.704 38.5828 171.703 38.8835 171.703C39.2844 171.591 39.5851 171.365 39.8858 171.14C41.1889 170.239 42.7926 169.788 44.2961 170.126C44.5968 170.239 44.8975 170.239 45.098 170.351C45.6994 170.689 46.2006 171.365 46.6015 172.042C46.7018 172.154 46.802 172.38 46.802 172.492C46.802 172.605 46.802 172.718 46.802 172.943C46.7018 174.07 46.1003 175.084 45.4989 175.986C44.7973 176.774 43.9954 177.45 43.0933 178.127C42.7926 178.352 42.4919 178.577 42.1912 178.69L40.7879 174.295C40.7879 174.295 40.387 173.506 40.0863 173.394C39.7856 173.619 39.3846 173.732 39.0839 173.845C36.6783 174.295 37.0793 172.718 37.0793 172.605Z" fill="#FFCEA1"/>
<path d="M44.0957 170.351C44.2962 172.492 46.0002 174.521 46.0002 174.521C47.0025 175.873 48.3056 175.76 50.21 174.633L63.8419 166.407C64.0424 166.295 64.1426 166.182 64.3431 166.069C65.9468 164.717 66.448 162.351 65.4457 160.322C65.0447 159.533 64.4433 158.857 63.7417 158.407C63.6414 158.294 63.441 158.294 63.3407 158.181C62.2382 157.73 61.0353 157.73 60.033 158.407L59.5318 158.745L46.4011 166.633C44.3964 167.534 43.8952 168.999 44.0957 170.351Z" fill="#D9A36E"/>
<path d="M23.5477 173.056L28.8602 176.436C29.2611 176.662 29.1608 177.112 28.6597 177.225L27.8578 177.45C27.4569 177.563 27.0559 177.45 26.7552 177.338L26.0536 176.887L24.5501 177L22.7458 175.873L22.9463 174.971L22.2447 174.521C21.944 174.295 21.8437 174.07 22.0442 173.844L22.4451 173.281C22.5454 172.83 23.247 172.718 23.5477 173.056Z" fill="#DADADA"/>
<path d="M23.3473 174.521C23.2471 174.521 23.2471 174.633 23.3473 174.633L26.3544 176.549C26.4546 176.549 26.5548 176.549 26.5548 176.549C26.6551 176.549 26.6551 176.436 26.5548 176.436L23.5478 174.521C23.5478 174.521 23.4476 174.521 23.3473 174.521Z" fill="#575756"/>
<path d="M23.8484 174.182C23.7482 174.182 23.7482 174.295 23.8484 174.295L26.8555 176.211C26.9557 176.211 27.0559 176.211 27.0559 176.211C27.1562 176.211 27.1562 176.098 27.0559 176.098L24.0489 174.182C23.9487 174.182 23.8484 174.182 23.8484 174.182Z" fill="#575756"/>
<path d="M24.2496 173.957C24.1493 173.957 24.1493 174.07 24.2496 174.07L27.2566 175.986C27.3568 175.986 27.4571 175.986 27.4571 175.986C27.5573 175.986 27.5573 175.873 27.4571 175.873L24.45 173.957C24.45 173.957 24.3498 173.957 24.2496 173.957Z" fill="#575756"/>
<path d="M28.1585 176.549C28.0583 176.662 28.0583 176.774 28.1585 176.887C28.2587 177 28.4592 177 28.6597 176.887C28.7599 176.774 28.7599 176.662 28.6597 176.549C28.4592 176.549 28.2587 176.549 28.1585 176.549Z" fill="#878787"/>
<path d="M22.8461 173.168C22.7459 173.281 22.7459 173.394 22.8461 173.506C22.9464 173.619 23.1468 173.619 23.3473 173.506C23.4475 173.394 23.4475 173.281 23.3473 173.168C23.1468 173.056 22.9464 173.056 22.8461 173.168Z" fill="#878787"/>
</svg>
