<svg width="129" height="300" viewBox="0 0 129 300" fill="none" xmlns="http://www.w3.org/2000/svg">
<path d="M32.9333 77.2613C31.9277 81.5803 34.1903 87.0989 34.1903 87.0989C35.6987 90.6981 38.7155 91.4179 43.9949 90.6981L82.2077 84.9394C82.7105 84.9394 83.2133 84.6995 83.4647 84.6995C83.4647 84.6995 83.4647 84.6995 83.7161 84.6995C88.4927 83.2599 91.5095 78.7009 90.7553 74.142C90.5039 72.2225 89.4983 70.303 88.2413 69.1033C87.9899 68.8633 87.7385 68.6234 87.4871 68.3834C85.2245 66.7038 82.4591 65.7441 79.4423 66.224L77.9339 66.4639L40.9781 71.9826C35.6987 71.9826 33.4361 74.382 32.9333 77.2613Z" fill="#D9A36E"/>
<path d="M115.141 282.172C118.409 283.851 118.409 286.731 115.141 288.65L96.7891 298.728C93.5209 300.407 88.2415 300.407 85.2247 298.728C81.9565 297.048 81.9565 294.169 85.2247 292.249L103.577 282.172C106.845 280.252 111.873 280.252 115.141 282.172Z" fill="#432918"/>
<path d="M98.046 271.855L111.622 270.655C114.387 274.254 117.152 278.573 117.907 285.051L83.2134 295.849C82.4592 291.29 87.7386 284.811 94.5264 280.253C96.789 278.573 95.532 274.494 98.046 271.855Z" fill="#432918"/>
<path d="M75.9226 260.337C79.1908 262.017 79.1908 264.896 75.9226 266.816L57.5704 276.893C54.3022 278.573 49.0229 278.573 46.0061 276.893C42.7379 275.214 42.7379 272.334 46.0061 270.415L64.3582 260.337C67.375 258.658 72.6544 258.658 75.9226 260.337Z" fill="#432918"/>
<path d="M58.5761 250.259L72.1516 249.06C74.917 252.659 77.6824 256.978 78.4366 263.456L43.7435 274.253C42.9893 269.695 48.2687 263.216 55.0565 258.657C57.5705 256.978 56.0621 252.659 58.5761 250.259Z" fill="#432918"/>
<path d="M50.5313 190.994L78.9395 194.593L79.6937 188.834L84.4703 155.243L88.9955 123.33L60.5873 119.491L50.5313 190.994Z" fill="#413D5B"/>
<path d="M56.5649 246.66C51.0341 249.78 51.0341 254.579 56.5649 257.698C62.0957 260.817 70.8947 260.817 76.4254 257.698C81.9562 254.579 81.9562 249.78 76.4254 246.66C70.8947 243.541 62.0957 243.541 56.5649 246.66Z" fill="#3E3A57"/>
<path d="M80.6994 252.179C81.9564 232.264 80.1966 196.992 78.9396 194.593C77.6826 191.954 75.6714 183.316 73.4088 181.636C69.8892 179.237 65.8668 176.837 61.593 177.557C56.565 178.277 51.7884 186.195 50.5314 190.994C49.2744 195.793 51.537 249.3 52.2912 252.179C53.0454 255.058 57.5706 251.219 60.336 252.179H80.6994Z" fill="#413D5B"/>
<path d="M83.2133 137.487H111.873V209.47H83.2133V137.487Z" fill="#413D5B"/>
<path d="M51.0342 74.3822L56.565 56.1465L61.8443 40.5503C63.6041 35.2716 69.6378 32.3923 75.1686 34.0719C80.6994 35.7515 83.7161 41.5101 81.9563 46.7888L75.9227 64.3046L67.1237 83.0201C65.3639 88.2988 60.336 89.0186 56.3136 88.0588C51.0342 86.3793 49.2744 79.6609 51.0342 74.3822Z" fill="#D9A36E"/>
<path d="M59.3303 128.609C58.8275 139.646 101.566 153.323 111.873 139.886C111.873 138.686 114.638 119.491 117.655 100.536C120.672 80.6205 123.689 60.4653 123.689 60.4653C121.426 56.8662 117.655 53.9869 113.381 51.1076C111.119 49.6679 108.605 48.4682 105.839 47.0286C103.074 45.5889 100.057 44.1493 97.5431 42.7096C92.2637 39.8303 87.7385 37.6708 83.9675 36.4711C69.1349 31.6723 66.8723 40.3102 64.1069 53.0271C63.6041 55.1866 63.3527 57.3461 63.3527 59.7455L59.3303 128.609Z" fill="#413D5B"/>
<path d="M95.029 267.775C89.4982 270.895 89.4982 275.694 95.029 278.813C100.56 281.932 109.359 281.932 114.89 278.813C120.42 275.694 120.42 270.895 114.89 267.775C109.359 264.656 100.56 264.656 95.029 267.775Z" fill="#3E3A57"/>
<path d="M119.164 273.294C118.409 253.379 113.13 211.629 111.873 209.469C110.365 207.07 107.599 203.951 105.085 202.511C101.314 200.352 97.0403 198.432 93.0179 199.392C87.9899 200.592 83.9675 204.431 83.2133 209.469C82.4591 214.268 89.7497 270.655 91.0067 273.294C92.0123 275.933 92.0123 275.933 95.0291 276.653L119.164 273.294Z" fill="#413D5B"/>
<path d="M62.5984 122.131C61.3414 122.37 59.833 122.85 58.576 122.61C57.5704 122.37 56.5648 122.131 55.8106 121.651C53.548 120.691 51.034 119.731 48.7714 118.771C48.0172 118.531 47.263 118.291 46.7602 117.812C45.2518 116.852 43.9949 115.652 43.4921 114.212C43.2407 113.733 43.2406 113.253 43.2406 112.773C43.2406 112.533 43.492 112.293 43.7434 112.293C44.749 111.573 46.2574 112.053 47.5144 112.293C49.777 112.773 52.291 112.293 54.5536 111.573C56.8162 110.853 59.0788 109.893 61.5928 109.414C59.833 109.893 58.0732 110.373 56.3134 110.133C54.5536 109.893 52.7938 108.934 52.291 107.254C52.291 107.014 52.291 107.014 52.291 106.774C52.291 106.534 52.5424 106.534 52.5424 106.534C53.2966 105.814 54.3022 105.575 55.3078 105.575C56.062 105.575 56.8162 105.814 57.5704 106.054C58.576 106.054 59.3302 105.814 60.3358 105.575C64.1068 104.615 68.1292 105.335 71.6488 107.014C72.403 107.254 72.9058 107.734 73.4086 108.214C74.6656 109.414 75.1684 111.093 75.6712 112.773C75.6712 113.253 75.9226 113.493 75.6712 113.972C75.6712 114.212 75.4198 114.452 75.4198 114.692C74.1628 116.852 72.1516 118.531 69.889 119.731C67.375 120.931 65.1124 121.411 62.5984 122.131Z" fill="#FFCEA1"/>
<path d="M65.8668 106.054L55.308 111.813L47.0118 116.372L42.738 118.771C41.9838 119.251 40.4754 119.251 39.4698 118.771L0.754227 97.4164C0.251427 97.1764 2.28882e-05 96.9365 2.28882e-05 96.4566V97.8962C2.28882e-05 98.1362 0.251427 98.6161 0.754227 98.856L27.9054 113.732C27.9054 113.492 27.654 113.492 27.654 113.253C27.654 113.013 27.654 113.013 27.9054 113.013L28.1568 112.773H28.4082L31.6764 114.692C31.9278 114.692 32.1792 115.172 32.1792 115.412V115.652L31.9278 115.892L33.1848 116.612C33.1848 116.372 32.9334 116.372 32.9334 116.132V115.892L33.4362 115.652H33.6876L36.2016 117.092C36.453 117.092 36.7044 117.571 36.7044 117.811V118.051L36.453 118.291L40.224 120.451C40.9782 120.931 42.4866 120.931 43.4922 120.451L49.023 117.092L55.5594 113.492L66.1182 107.734C66.3696 107.494 66.621 107.014 66.621 106.774V105.334C66.621 105.574 66.3696 105.814 65.8668 106.054Z" fill="#575756"/>
<path d="M24.1344 83.0198C24.8886 82.5399 26.397 82.5399 27.4026 83.0198L66.1182 104.375C66.3696 104.615 66.621 104.855 66.621 105.334C66.621 105.574 66.3696 106.054 65.8668 106.294L55.308 112.053L55.0566 111.813C54.3024 111.333 52.794 111.333 52.0398 111.813L46.7604 114.692C46.0062 115.172 46.0062 115.892 46.7604 116.372L47.2632 116.612L42.9894 119.011C42.2352 119.491 40.7268 119.491 39.7212 119.011L1.00562 97.6563C0.502823 97.4164 0.251419 97.1764 0.251419 96.6965C0.251419 96.4566 0.502823 95.9767 1.00562 95.9767L10.3074 90.698L5.27942 93.5773L5.53082 93.8172C6.28501 94.2971 7.79342 94.2971 8.54762 93.8172L13.827 90.698C14.5812 90.2181 14.5812 89.4983 13.827 89.0184L13.5756 88.7784L24.1344 83.0198ZM22.1232 107.974C22.3746 107.734 22.3746 107.494 22.1232 107.254C21.8718 107.014 21.369 107.014 20.8662 107.254C20.6148 107.494 20.6148 107.734 20.8662 107.974C21.1176 107.974 21.8718 107.974 22.1232 107.974ZM41.481 116.132L60.8388 105.334C61.3416 105.095 61.3416 104.375 60.8388 104.135L27.4026 85.6592C26.8998 85.4192 25.8942 85.4192 25.14 85.6592L5.78223 96.4566C5.27943 96.6965 5.27943 97.4164 5.78223 97.6563L39.2184 116.132C39.9726 116.612 40.9782 116.612 41.481 116.132Z" fill="#706F6F"/>
<path d="M61.0902 105.574L41.7324 116.372C41.2296 116.612 40.224 116.612 39.4698 116.372L6.03363 97.8963C5.53083 97.6564 5.53083 96.9365 6.03363 96.6966L25.3914 85.8992C25.8942 85.6593 26.8998 85.6593 27.654 85.8992L61.0902 104.375C61.593 104.615 61.593 105.095 61.0902 105.574ZM40.9782 97.1765L39.9726 97.8963L37.9614 99.096L34.1904 101.255L40.224 104.615L43.7436 102.215L45.7548 101.016L46.7604 100.296L40.9782 97.1765ZM39.4698 104.615L32.9334 101.016L26.8998 97.6564L26.397 97.4164L21.1176 94.5371L20.3634 94.0572L17.0952 95.7368L17.8494 96.2167L23.1288 99.096L36.2016 106.294L39.4698 104.615ZM23.883 91.8977L20.6148 93.5773L26.6484 96.9365L33.1848 100.536L36.9558 98.3762L40.224 96.6966L34.1904 93.3374L33.6876 93.0975L27.654 89.7383L24.3858 91.4179L23.883 91.8977ZM19.3578 101.255L22.626 99.5759L16.5924 96.2167L13.3242 97.8963L19.3578 101.255ZM25.8942 104.855L29.1624 103.175L23.1288 99.8158L19.8606 101.495L25.8942 104.855ZM32.682 108.454L35.9502 106.774L29.9166 103.415L26.6484 105.095L32.682 108.454ZM45.7548 101.735L44.2464 102.695L40.4754 104.855L46.509 107.974L50.28 105.814L51.7884 104.855L53.2968 103.895L47.2632 100.536L45.7548 101.735ZM39.9726 104.855L36.7044 106.534L42.738 109.893L46.0062 108.214L39.9726 104.855ZM39.2184 112.053L42.4866 110.373L36.453 107.014L33.1848 108.694L39.2184 112.053Z" fill="white"/>
<path d="M22.1232 107.254C21.8718 107.014 21.369 107.014 20.8662 107.254C20.6148 107.494 20.6148 107.734 20.8662 107.974C21.1176 108.214 21.6204 108.214 22.1232 107.974C22.3746 107.734 22.3746 107.494 22.1232 107.254Z" fill="#DADADA"/>
<path d="M55.308 112.053L55.0566 111.813C54.3024 111.333 52.794 111.333 52.0398 111.813L46.7604 114.692C46.0062 115.172 46.0062 115.892 46.7604 116.372L47.2632 116.612L55.308 112.053Z" fill="#9D9D9C"/>
<path d="M5.53078 93.5775C6.28498 94.0574 7.79339 94.0574 8.54759 93.5775L13.827 90.6982C14.5812 90.2183 14.5812 89.4985 13.827 89.0186L13.5756 88.7786L10.5588 90.4582L5.53078 93.3375V93.5775Z" fill="#9D9D9C"/>
<path d="M36.2016 107.014L32.9334 108.694L39.2184 112.053L42.4866 110.373L36.2016 107.014Z" fill="#E96B57"/>
<path d="M29.6651 103.415L26.3969 105.095L32.6819 108.454L35.6987 106.774L29.6651 103.415Z" fill="#C6C6C6"/>
<path d="M23.1287 99.5761L19.8605 101.496L25.8941 104.855L29.1623 102.935L23.1287 99.5761Z" fill="#FCEA10"/>
<path d="M16.5923 95.977L13.3241 97.8965L19.3577 101.256L22.6259 99.3361L16.5923 95.977Z" fill="#36A9E1"/>
<path d="M42.9892 110.133L46.006 108.214L39.9724 104.855L36.7042 106.774L42.9892 110.133Z" fill="#36A9E1"/>
<path d="M26.8997 97.6564L32.9333 101.016L26.8997 97.6564Z" fill="#296AAE"/>
<path d="M32.9333 101.016L26.8997 97.6564L26.3969 97.4164L20.8661 94.2972L20.3633 94.0573L17.0951 95.7368L17.8493 96.2167L23.1287 99.096L36.2015 106.294L39.4697 104.615L32.9333 101.016Z" fill="#DADADA"/>
<path d="M40.4753 104.615L46.5089 107.974L50.2799 105.815L52.0397 105.095L53.5481 104.135L47.5145 100.776L45.7547 101.735L44.2463 102.455L40.4753 104.615Z" fill="#FCEA10"/>
<path d="M37.71 98.8562L33.939 101.016L39.9726 104.375L43.7436 102.215L45.7548 101.016L47.0118 100.536L40.9782 97.1766L39.7212 97.6565L37.71 98.8562Z" fill="#E96B57"/>
<path d="M20.8662 93.8174L23.8829 91.8979L24.3857 91.658L27.6539 89.9784L33.6875 93.3375L34.1903 93.5775L40.2239 96.9367L36.9557 98.6163L33.1847 100.776L26.6483 97.1766L20.8662 93.8174ZM33.4361 98.6163L24.6372 93.8174L24.1343 94.0574L32.9333 98.8562L33.4361 98.6163ZM34.1903 98.1364L34.6931 97.8965L30.9221 95.737L30.4193 95.9769L34.1903 98.1364ZM27.6539 91.8979L36.4529 96.6967L36.9557 96.4568L28.1567 91.658L27.6539 91.8979ZM26.3969 92.6177L35.1959 97.4166H35.6987L26.8997 92.6177H26.3969ZM25.6427 93.0976L25.1399 93.3375L28.9109 95.497L29.4137 95.2571L25.6427 93.0976Z" fill="#F19759"/>
<path d="M33.1847 116.132L35.6987 117.572C35.9501 117.572 36.2015 118.051 36.2015 118.291V118.531L36.4529 118.051C36.4529 118.051 36.4529 118.051 36.4529 117.811C36.4529 117.572 36.2015 117.332 35.9501 117.092L33.4362 115.652H33.1847L32.6819 115.892C33.1847 116.132 33.1847 116.132 33.1847 116.132Z" fill="#3C3C3B"/>
<path d="M35.95 118.292C35.95 117.812 35.95 117.572 35.6986 117.332L33.1846 115.892H32.9332C32.9332 115.892 32.9332 115.892 32.9332 116.132C32.9332 116.372 32.9332 116.372 33.1846 116.612L33.436 116.852L35.95 118.292C35.95 118.292 35.6986 118.292 35.95 118.292Z" fill="#B2B2B2"/>
<path d="M28.1568 113.253L31.425 115.172C31.6764 115.172 31.9278 115.652 31.9278 115.892V116.132L32.1792 115.892C32.1792 115.892 32.1792 115.892 32.1792 115.652C32.1792 115.412 31.9278 115.172 31.6764 114.932L28.4082 113.013C28.6596 113.013 28.4082 113.013 28.1568 113.253Z" fill="#3C3C3B"/>
<path d="M31.9278 116.132C31.9278 115.892 31.9278 115.892 31.9278 116.132C31.9278 115.652 31.9278 115.412 31.6764 115.172L28.4082 113.253H28.1568C28.1568 113.253 27.9054 113.253 27.9054 113.493C27.9054 113.733 27.9054 113.733 28.1568 113.972L28.4082 114.212L31.6764 116.132C31.6764 116.132 31.6764 116.132 31.9278 116.132Z" fill="#B2B2B2"/>
<path d="M52.5424 106.534C53.2966 105.814 54.3022 105.575 55.3078 105.575C56.062 105.575 56.8162 105.814 57.5704 106.054C58.576 106.054 59.3302 105.814 60.3358 105.575C64.1068 104.615 68.1292 105.335 71.6488 107.014C72.403 107.254 72.9058 107.734 73.4086 108.214C74.6656 109.414 75.1684 111.093 75.6712 112.773C75.6712 113.253 75.9226 113.493 75.6712 113.972C75.6712 114.212 75.4198 114.452 75.4198 114.692C74.1628 116.852 72.1516 118.531 69.889 119.731C67.6264 120.931 65.1124 121.411 62.5984 122.131C61.8442 122.37 61.09 122.61 60.0844 122.61V112.533C60.0844 112.533 59.5816 110.613 59.0788 110.133C58.0732 110.373 57.319 110.373 56.3134 110.133C50.2798 109.654 52.291 106.774 52.5424 106.534Z" fill="#FFCEA1"/>
<path d="M30.9222 77.7412C34.1904 77.7412 36.453 76.3015 38.967 78.701C41.2296 80.8604 41.9838 83.0199 39.4698 85.1794C37.9614 86.3791 32.682 93.3374 30.6708 93.5774C29.4138 93.8173 28.911 93.5774 27.654 93.8173C26.8998 94.0573 25.8942 94.5371 25.3914 95.257C24.8886 95.9768 23.6316 96.4567 22.8774 95.7369C22.626 95.4969 21.8718 93.8173 25.3914 90.938C26.1456 90.2182 19.3578 94.0573 13.827 98.1363C12.8214 98.8561 10.3074 98.3762 11.5644 95.9768C13.3242 93.5774 15.5868 92.1377 17.8494 90.4581C17.0952 89.2584 15.8382 86.859 16.0896 85.4193C16.341 83.7397 20.6148 78.9409 22.3746 77.9811C23.6316 77.5013 29.6652 77.7412 30.9222 77.7412Z" fill="#FFCEA1"/>
<path d="M70.3919 68.6234C70.3919 68.6234 85.2245 76.3016 90.7553 79.4208C92.0123 73.6622 92.2637 59.9855 95.5319 55.1867C98.0459 51.5876 101.565 48.4683 105.839 47.2686C103.074 45.8289 100.057 44.3893 97.5431 42.9496C92.2637 40.0703 87.7385 37.9109 83.9675 36.7111C83.7161 36.9511 83.2133 36.9511 82.9619 37.191C67.8779 43.1896 70.3919 68.6234 70.3919 68.6234Z" fill="#D9A36E"/>
<path d="M99.0514 94.2971C100.56 96.6965 103.074 98.6161 105.839 99.3359C108.605 100.296 111.621 100.296 114.638 100.296C115.644 100.296 116.649 100.296 117.404 100.296C120.42 80.3805 123.437 60.2253 123.437 60.2253C121.175 56.6262 117.404 53.7469 113.13 50.8676C109.107 51.3474 105.336 53.027 103.074 55.9064C99.8056 59.9854 99.3028 65.0242 99.0514 70.0629C98.5486 74.8618 98.2972 79.6606 98.0458 84.2195C97.543 88.0586 97.543 91.4178 99.0514 94.2971Z" fill="#D9A36E"/>
<path opacity="0.1" d="M101.566 104.375L111.873 100.056V66.9437H104.582L101.566 104.375Z" fill="#1D1D1B"/>
<path d="M113.633 55.6665C119.415 55.1866 124.694 59.2656 125.197 64.7843L126.957 81.8202L128.968 104.375C129.471 109.893 123.94 113.972 118.158 114.452C112.376 114.932 110.867 109.414 109.61 104.375L104.08 66.7038C103.325 61.1851 107.599 56.1463 113.633 55.6665Z" fill="#D9A36E"/>
<path d="M70.6433 107.734C69.6377 112.053 71.9003 117.572 71.9003 117.572C73.4087 121.171 76.4255 121.891 81.7049 121.171L119.918 115.412C120.42 115.412 120.923 115.172 121.175 115.172C121.175 115.172 121.175 115.172 121.426 115.172C126.203 113.733 129.219 109.174 128.465 104.615C128.214 102.695 127.208 100.776 125.951 99.5759C125.7 99.336 125.448 99.0961 125.197 98.8561C122.934 97.1765 120.169 96.2168 117.152 96.6966L115.644 96.9366L78.6881 102.455C73.4087 102.215 71.3975 104.855 70.6433 107.734Z" fill="#D9A36E"/>
<path d="M81.2021 47.0288C81.7049 47.9885 82.4591 48.7084 83.7161 49.4282C87.7385 51.5877 94.0235 51.5877 98.0459 49.4282C102.068 47.2687 102.068 43.6696 98.0459 41.5101C97.0403 41.0302 96.0347 40.5503 95.0291 40.3104C94.5263 40.0704 93.7721 40.0704 93.2693 40.0704C90.0011 39.5906 86.2301 40.0704 83.7161 41.5101C82.4591 42.2299 81.4535 43.1897 80.9507 44.1495C80.4479 45.1092 80.6993 46.069 81.2021 47.0288Z" fill="#FFCEA1"/>
<path d="M80.6992 20.635H100.811V45.589H80.6992V20.635Z" fill="#FFCEA1"/>
<path d="M97.5432 21.8348C97.2918 24.4742 97.2918 27.3535 96.5376 29.9929C95.7834 32.6322 94.7778 35.2716 92.7666 37.4311C89.7498 40.3104 85.2246 41.75 81.2022 41.0302C80.1966 40.7903 79.191 40.5503 78.4368 40.0704C76.9284 38.8707 76.1742 37.1911 75.6714 35.2716C73.4088 27.8334 73.1574 19.9153 73.6602 11.9972C73.6602 10.7975 73.9116 9.59779 74.163 8.63802C75.1686 5.27883 78.6882 3.3593 82.2078 2.87941C85.7274 2.39953 89.247 3.59924 92.5152 5.03889C93.5208 5.51878 94.275 5.99866 95.0292 6.47855C95.7834 7.19837 96.2862 7.9182 96.789 8.63802C97.5432 9.35785 97.7946 17.7558 97.5432 21.8348Z" fill="#FFCEA1"/>
<path d="M97.5432 25.1938C97.2918 27.8332 97.2918 30.7125 96.5376 33.3519C95.7834 35.9912 94.7778 38.6306 92.7666 40.7901C89.7498 43.6694 85.2246 45.109 81.2022 44.3892C80.1966 44.1493 79.191 43.9093 78.4368 43.4294C76.9284 42.2297 76.1742 40.5501 75.6714 38.6306C73.4088 31.1924 73.1574 23.2743 73.6602 15.3562C73.6602 14.1565 73.9116 12.9568 74.163 11.997C75.1686 8.63781 78.6882 6.71828 82.2078 6.23839C85.7274 5.75851 89.247 6.95822 92.5152 8.39787C93.5208 8.87775 94.275 9.35764 95.0292 9.83752C95.7834 10.5574 96.2862 11.2772 96.789 11.997C97.5432 12.4769 97.7946 21.1148 97.5432 25.1938Z" fill="#FFCEA1"/>
<path opacity="0.1" d="M81.202 47.0288C85.4758 47.7486 90.001 46.3089 92.7664 43.4296C93.772 42.4699 94.2748 41.5101 95.029 40.3104C95.7832 38.8707 96.286 37.4311 96.5374 35.9914C97.2916 33.3521 97.2916 30.4728 97.543 27.8334C97.543 26.3937 97.543 24.7141 97.543 22.7946C97.543 23.5144 97.543 24.2343 97.543 24.7141C97.2916 27.3535 97.2916 30.2328 96.5374 32.8722C96.0346 35.2716 94.7776 37.911 93.2692 39.8305C93.0178 40.0704 93.0178 40.0704 92.7664 40.3104C90.001 43.1897 85.2244 44.6293 81.202 43.9095C80.4478 45.1092 80.6992 46.069 81.202 47.0288Z" fill="#1D1D1B"/>
<path d="M96.0348 23.9942C96.0348 24.2342 98.046 22.7945 98.8002 22.5546C97.5432 27.1135 97.0404 31.6724 97.2918 36.2313C97.2918 36.9511 97.2918 37.6709 97.7946 37.9109C98.046 38.1508 98.5488 38.3908 99.0516 38.3908C100.811 38.6307 102.823 37.431 103.577 35.7514C104.582 34.3117 104.834 32.3922 105.337 30.7126C105.839 28.5531 106.091 26.1537 106.342 23.9942C106.845 19.4353 107.599 14.3965 105.839 10.0776C104.331 6.71838 101.817 4.07902 98.5488 2.39942C95.2806 0.719827 91.0068 0 87.2358 0C84.219 0 80.9508 0.479887 78.1854 1.91954C75.42 3.35919 73.1574 5.75861 72.1518 8.63792C71.649 9.83763 71.649 11.0373 71.9004 12.477C72.6546 14.8764 75.1686 16.3161 77.6826 16.796C81.9564 17.7557 86.4816 17.5158 90.504 15.5962C91.2582 15.1164 92.2638 14.8764 93.018 14.6365C94.0236 14.6365 95.0292 14.8764 95.2806 15.5962C95.532 16.0761 95.532 16.556 95.532 17.0359C96.0348 18.4755 96.0348 23.7543 96.0348 23.9942Z" fill="#3C3C3B"/>
<path d="M98.8001 20.3951C97.7945 20.1552 96.7889 21.1149 96.2861 22.0747C95.7833 23.2744 95.5319 24.4741 95.2805 25.6738C95.0291 27.1135 94.7777 28.7931 95.5319 30.2327C95.7833 30.7126 96.0347 30.9526 96.2861 31.1925C96.7889 31.4324 97.7945 31.1925 98.2973 30.9526C98.8001 30.4727 99.0515 29.9928 99.3029 29.273C100.057 27.5934 100.308 25.9138 100.56 23.9942C100.56 23.2744 100.811 22.5546 100.56 21.8348C100.308 21.1149 99.8057 20.6351 98.8001 20.3951Z" fill="#FFCEA1"/>
<path d="M73.4088 27.1134C73.9116 28.0731 78.4368 29.5128 80.6994 30.9524C84.4704 33.3518 87.99 35.7513 91.761 32.872C93.018 31.9122 94.0236 29.7527 94.275 28.3131C94.5264 26.6335 94.7778 24.7139 94.7778 23.0343C94.7778 19.9151 94.5264 16.7958 94.7778 13.6766C96.0348 15.1162 98.2974 17.0358 98.046 18.7154C97.7946 19.4352 97.7946 19.9151 97.7946 20.6349C97.7946 23.5142 97.0404 35.5113 95.0292 39.1105C93.018 42.9495 88.7442 45.8288 84.219 45.8288C71.9004 45.109 72.906 27.3533 73.4088 27.1134ZM76.9284 35.9912C76.9284 35.5113 77.4312 35.2714 77.934 35.5113L78.9396 35.9912C79.4424 36.2312 79.9452 36.711 79.9452 37.4309V37.9108C79.9452 38.3906 80.1966 38.8705 80.6994 39.1105C81.9564 39.8303 82.962 39.3504 82.962 37.9108C82.962 36.4711 81.9564 34.7915 80.6994 34.0717L77.6826 32.3921C76.4256 31.6723 75.42 32.1521 75.42 33.5918C75.42 34.5516 75.9228 35.5113 76.4256 36.4711C76.4256 36.4711 76.9284 36.2312 76.9284 35.9912Z" fill="#3C3C3B"/>
</svg>
